<svg width="3696" height="2232" viewBox="0 0 3696 2232" fill="none" xmlns="http://www.w3.org/2000/svg">
<g clip-path="url(#clip0)">
<rect width="3696" height="2232" fill="white"/>
<g opacity="0.3">
<rect width="510.06" height="510.06" transform="translate(604.019 679.733)" fill="white"/>
<ellipse cx="1039.23" cy="927.305" rx="14.2769" ry="13.767" fill="#C4C4C4"/>
<circle cx="853.627" cy="1112.4" r="14.2769" fill="#C4C4C4"/>
<path d="M853.309 1109.88C851.787 1109.88 850.545 1111.12 850.545 1112.65C850.545 1114.17 851.787 1115.41 853.309 1115.41C854.831 1115.41 856.073 1114.17 856.073 1112.65C856.073 1111.12 854.831 1109.88 853.309 1109.88ZM861.598 1112.65C861.598 1111.5 861.609 1110.37 861.545 1109.22C861.48 1107.9 861.178 1106.72 860.207 1105.75C859.235 1104.78 858.059 1104.48 856.732 1104.41C855.587 1104.35 854.453 1104.36 853.311 1104.36C852.166 1104.36 851.032 1104.35 849.89 1104.41C848.563 1104.48 847.385 1104.78 846.414 1105.75C845.442 1106.72 845.141 1107.9 845.077 1109.22C845.013 1110.37 845.023 1111.5 845.023 1112.65C845.023 1113.79 845.013 1114.92 845.077 1116.07C845.141 1117.39 845.444 1118.57 846.414 1119.54C847.387 1120.51 848.563 1120.82 849.89 1120.88C851.034 1120.94 852.168 1120.93 853.311 1120.93C854.455 1120.93 855.59 1120.94 856.732 1120.88C858.059 1120.82 859.237 1120.51 860.207 1119.54C861.18 1118.57 861.48 1117.39 861.545 1116.07C861.611 1114.92 861.598 1113.79 861.598 1112.65V1112.65ZM853.309 1116.9C850.955 1116.9 849.056 1115 849.056 1112.65C849.056 1110.29 850.955 1108.39 853.309 1108.39C855.662 1108.39 857.561 1110.29 857.561 1112.65C857.561 1115 855.662 1116.9 853.309 1116.9ZM857.736 1109.21C857.186 1109.21 856.742 1108.77 856.742 1108.22C856.742 1107.67 857.186 1107.23 857.736 1107.23C858.285 1107.23 858.729 1107.67 858.729 1108.22C858.729 1108.35 858.703 1108.48 858.654 1108.6C858.604 1108.72 858.531 1108.83 858.438 1108.92C858.346 1109.01 858.236 1109.09 858.116 1109.14C857.995 1109.19 857.866 1109.21 857.736 1109.21V1109.21Z" fill="black"/>
<path d="M849.542 982.925L852.112 1094.39C852.112 1094.4 852.115 1094.4 852.12 1094.4C852.125 1094.4 852.128 1094.4 852.128 1094.39L849.559 982.933C849.559 982.928 849.555 982.925 849.551 982.925C849.546 982.925 849.542 982.921 849.542 982.925Z" stroke="url(#paint0_linear)" stroke-width="2" stroke-linejoin="round"/>
<path d="M850.13 872.093L852.999 774.443C853.005 774.232 852.839 774.062 852.629 774.056C852.418 774.05 852.242 774.216 852.236 774.426L849.368 872.031C849.362 872.242 849.528 872.417 849.738 872.423C849.949 872.43 850.123 872.304 850.13 872.093Z" stroke="url(#paint1_linear)" stroke-width="2" stroke-linejoin="round"/>
<ellipse cx="853.627" cy="756.492" rx="14.2769" ry="14.2769" fill="#C4C4C4"/>
<path d="M851.592 763.892V757.011H849.802V754.534H851.592V752.418C851.592 750.755 852.65 749.228 855.086 749.228C856.073 749.228 856.803 749.324 856.803 749.324L856.745 751.638C856.745 751.638 856.001 751.63 855.189 751.63C854.31 751.63 854.17 752.042 854.17 752.725V754.534H856.815L856.7 757.011H854.17V763.892H851.592Z" fill="black"/>
<path d="M885.713 879.203L898.965 860.082C899.382 859.48 899.23 858.656 898.629 858.239C898.027 857.822 897.201 857.972 896.784 858.574L883.539 877.686C883.121 878.287 883.271 879.113 883.873 879.53C884.475 879.947 885.296 879.805 885.713 879.203Z" stroke="url(#paint2_linear)" stroke-width="2" stroke-linejoin="round"/>
<ellipse cx="905.636" cy="846.233" rx="8.15825" ry="8.15824" fill="#999999"/>
<path d="M789.418 925.775H690.447C689.32 925.775 688.423 926.689 688.423 927.815C688.423 928.941 689.336 929.855 690.462 929.855H789.381C790.507 929.855 791.421 928.941 791.421 927.815C791.421 926.689 790.544 925.775 789.418 925.775Z" stroke="url(#paint3_linear)" stroke-width="2" stroke-linejoin="round"/>
<ellipse cx="668.027" cy="927.305" rx="14.2769" ry="13.767" fill="#C4C4C4"/>
<path d="M671.601 929.236C671.601 929.935 671.8 930.213 672.319 930.213C673.475 930.213 674.211 928.738 674.211 926.284C674.211 922.534 671.482 920.738 668.074 920.738C664.568 920.738 661.379 923.092 661.379 927.541C661.379 931.79 664.169 934.104 668.452 934.104C669.907 934.104 670.883 933.944 672.377 933.446L672.697 934.781C671.223 935.261 669.647 935.4 668.433 935.4C662.814 935.4 659.805 932.308 659.805 927.54C659.805 922.732 663.292 919.461 668.094 919.461C673.095 919.461 675.744 922.453 675.744 926.124C675.744 929.236 674.768 931.61 671.7 931.61C670.305 931.61 669.389 931.051 669.269 929.813C668.911 931.19 667.954 931.61 666.658 931.61C664.925 931.61 663.471 930.272 663.471 927.58C663.471 924.867 664.747 923.191 667.038 923.191C668.253 923.191 669.01 923.67 669.347 924.428L669.926 923.371H671.6V929.236H671.601V929.236ZM669.151 926.603C669.151 925.507 668.334 925.047 667.656 925.047C666.919 925.047 666.103 925.645 666.103 927.401C666.103 928.798 666.721 929.576 667.656 929.576C668.314 929.576 669.151 929.157 669.151 928V926.603Z" fill="black"/>
<path d="M892.956 965.406L900.07 972.519C900.312 972.762 900.704 972.761 900.947 972.518C901.189 972.276 901.189 971.883 900.947 971.64L893.836 964.53C893.594 964.287 893.201 964.287 892.958 964.53C892.716 964.772 892.714 965.163 892.956 965.406Z" stroke="url(#paint4_linear)" stroke-width="2" stroke-linejoin="round"/>
<ellipse cx="910.735" cy="979.824" rx="8.15826" ry="8.15825" fill="#979797"/>
<path d="M912.374 980.506C912.374 980.813 912.461 980.936 912.69 980.936C913.199 980.936 913.523 980.287 913.523 979.207C913.523 977.557 912.321 976.767 910.822 976.767C909.279 976.767 907.876 977.803 907.876 979.76C907.876 981.63 909.104 982.648 910.989 982.648C911.629 982.648 912.058 982.578 912.715 982.358L912.856 982.946C912.208 983.157 911.514 983.218 910.98 983.218C908.508 983.218 907.183 981.857 907.183 979.76C907.183 977.644 908.718 976.205 910.831 976.205C913.031 976.205 914.197 977.521 914.197 979.136C914.197 980.506 913.768 981.55 912.418 981.55C911.804 981.55 911.401 981.304 911.348 980.76C911.19 981.366 910.769 981.55 910.199 981.55C909.437 981.55 908.797 980.962 908.797 979.777C908.797 978.583 909.358 977.846 910.366 977.846C910.901 977.846 911.234 978.057 911.382 978.39L911.637 977.925H912.373V980.506H912.374V980.506ZM911.296 979.347C911.296 978.865 910.936 978.663 910.638 978.663C910.314 978.663 909.955 978.926 909.955 979.699C909.955 980.313 910.227 980.655 910.638 980.655C910.928 980.655 911.296 980.471 911.296 979.962V979.347Z" fill="black"/>
<ellipse cx="857.453" cy="927.987" rx="52.0088" ry="52.5187" fill="black"/>
<path d="M822.289 899.058C819.351 899.058 816.969 901.44 816.969 904.378V904.378C816.969 916.942 822.629 928.162 831.479 935.634C834.311 938.025 836.299 941.389 836.299 945.095V945.095C836.299 951.009 841.092 955.802 847.006 955.802H881.922C885.84 955.802 889.015 952.627 889.015 948.709V948.709C889.015 939.276 870.283 934.523 860.9 934.523H860.021C843.328 934.523 829.27 920.337 829.27 904.378V904.378C829.27 901.44 826.888 899.058 823.95 899.058H822.289ZM860.9 899.058C857.171 899.058 853.596 900.553 850.959 903.213C848.323 905.874 846.842 909.482 846.842 913.244C846.842 917.007 848.323 920.615 850.959 923.275C853.596 925.936 857.171 927.43 860.9 927.43C864.628 927.43 868.204 925.936 870.84 923.275C873.476 920.615 874.957 917.007 874.957 913.244C874.957 909.482 873.476 905.874 870.84 903.213C868.204 900.553 864.628 899.058 860.9 899.058Z" fill="#C9C9C9"/>
</g>
<g opacity="0.3">
<rect width="259" height="258" transform="translate(1252 711)" fill="white"/>
<ellipse cx="1472.99" cy="836.228" rx="7.24959" ry="6.96368" fill="#C4C4C4"/>
<ellipse cx="1378.75" cy="929.851" rx="7.24959" ry="7.2216" fill="#C4C4C4"/>
<path d="M1378.59 928.579C1377.81 928.579 1377.18 929.208 1377.18 929.977C1377.18 930.747 1377.81 931.376 1378.59 931.376C1379.36 931.376 1379.99 930.747 1379.99 929.977C1379.99 929.208 1379.36 928.579 1378.59 928.579ZM1382.79 929.977C1382.79 929.399 1382.8 928.825 1382.77 928.247C1382.73 927.576 1382.58 926.98 1382.09 926.489C1381.59 925.997 1381 925.845 1380.32 925.813C1379.74 925.78 1379.17 925.785 1378.59 925.785C1378 925.785 1377.43 925.78 1376.85 925.813C1376.18 925.845 1375.58 925.998 1375.08 926.489C1374.59 926.981 1374.44 927.576 1374.41 928.247C1374.37 928.826 1374.38 929.4 1374.38 929.977C1374.38 930.555 1374.37 931.13 1374.41 931.708C1374.44 932.379 1374.59 932.975 1375.08 933.466C1375.58 933.958 1376.18 934.11 1376.85 934.142C1377.43 934.175 1378.01 934.17 1378.59 934.17C1379.17 934.17 1379.74 934.175 1380.32 934.142C1381 934.11 1381.6 933.957 1382.09 933.466C1382.58 932.974 1382.73 932.379 1382.77 931.708C1382.8 931.13 1382.79 930.556 1382.79 929.977V929.977ZM1378.59 932.129C1377.39 932.129 1376.43 931.168 1376.43 929.977C1376.43 928.787 1377.39 927.826 1378.59 927.826C1379.78 927.826 1380.74 928.787 1380.74 929.977C1380.74 931.168 1379.78 932.129 1378.59 932.129ZM1380.83 928.241C1380.55 928.241 1380.33 928.016 1380.33 927.738C1380.33 927.46 1380.55 927.236 1380.83 927.236C1381.11 927.236 1381.34 927.46 1381.34 927.738C1381.34 927.804 1381.32 927.87 1381.3 927.931C1381.27 927.992 1381.24 928.047 1381.19 928.094C1381.14 928.14 1381.09 928.177 1381.03 928.203C1380.96 928.228 1380.9 928.241 1380.83 928.241V928.241Z" fill="black"/>
<path d="M1376.67 864.362L1377.98 920.744C1377.98 920.746 1377.98 920.748 1377.98 920.748C1377.98 920.748 1377.99 920.746 1377.99 920.744L1376.68 864.366C1376.68 864.363 1376.68 864.362 1376.68 864.362C1376.67 864.362 1376.67 864.36 1376.67 864.362Z" stroke="url(#paint5_linear)" stroke-width="2" stroke-linejoin="round"/>
<path d="M1376.97 808.3L1378.43 758.908C1378.43 758.801 1378.35 758.714 1378.24 758.711C1378.13 758.708 1378.04 758.792 1378.04 758.899L1376.58 808.268C1376.58 808.375 1376.67 808.464 1376.77 808.468C1376.88 808.471 1376.97 808.407 1376.97 808.3Z" stroke="url(#paint6_linear)" stroke-width="2" stroke-linejoin="round"/>
<ellipse cx="1378.75" cy="749.827" rx="7.24959" ry="7.22161" fill="#C4C4C4"/>
<path d="M1377.71 753.57V750.089H1376.8V748.836H1377.71V747.766C1377.71 746.925 1378.25 746.152 1379.49 746.152C1379.99 746.152 1380.36 746.201 1380.36 746.201L1380.33 747.371C1380.33 747.371 1379.95 747.368 1379.54 747.368C1379.09 747.368 1379.02 747.576 1379.02 747.921V748.836H1380.37L1380.31 750.089H1379.02V753.57H1377.71Z" fill="black"/>
<path d="M1395.04 811.896L1401.77 802.225C1401.98 801.921 1401.9 801.504 1401.6 801.293C1401.29 801.082 1400.87 801.158 1400.66 801.463L1393.94 811.129C1393.72 811.433 1393.8 811.851 1394.11 812.062C1394.41 812.273 1394.83 812.201 1395.04 811.896Z" stroke="url(#paint7_linear)" stroke-width="2" stroke-linejoin="round"/>
<ellipse cx="1405.16" cy="795.22" rx="4.14262" ry="4.12663" fill="#999999"/>
<path d="M1346.15 835.454H1295.88C1295.31 835.454 1294.86 835.916 1294.86 836.486C1294.86 837.056 1295.32 837.518 1295.89 837.518H1346.13C1346.7 837.518 1347.16 837.056 1347.16 836.486C1347.16 835.916 1346.72 835.454 1346.15 835.454Z" stroke="url(#paint8_linear)" stroke-width="2" stroke-linejoin="round"/>
<ellipse cx="1284.5" cy="836.228" rx="7.24959" ry="6.96368" fill="#C4C4C4"/>
<path d="M1286.32 837.205C1286.32 837.558 1286.42 837.699 1286.68 837.699C1287.27 837.699 1287.64 836.953 1287.64 835.711C1287.64 833.814 1286.26 832.906 1284.53 832.906C1282.75 832.906 1281.13 834.097 1281.13 836.347C1281.13 838.496 1282.54 839.667 1284.72 839.667C1285.46 839.667 1285.95 839.586 1286.71 839.334L1286.87 840.01C1286.12 840.252 1285.32 840.322 1284.71 840.322C1281.85 840.322 1280.33 838.758 1280.33 836.347C1280.33 833.915 1282.1 832.26 1284.54 832.26C1287.08 832.26 1288.42 833.774 1288.42 835.63C1288.42 837.204 1287.93 838.405 1286.37 838.405C1285.66 838.405 1285.19 838.123 1285.13 837.497C1284.95 838.193 1284.47 838.405 1283.81 838.405C1282.93 838.405 1282.19 837.729 1282.19 836.367C1282.19 834.995 1282.84 834.147 1284 834.147C1284.62 834.147 1285 834.389 1285.17 834.773L1285.47 834.238H1286.32V837.205H1286.32V837.205ZM1285.07 835.873C1285.07 835.318 1284.66 835.086 1284.31 835.086C1283.94 835.086 1283.53 835.388 1283.53 836.277C1283.53 836.983 1283.84 837.376 1284.31 837.376C1284.65 837.376 1285.07 837.165 1285.07 836.579V835.873Z" fill="black"/>
<path d="M1398.72 855.5L1402.33 859.098C1402.45 859.221 1402.65 859.221 1402.77 859.098C1402.9 858.975 1402.9 858.776 1402.77 858.654L1399.16 855.057C1399.04 854.934 1398.84 854.934 1398.72 855.057C1398.6 855.18 1398.59 855.378 1398.72 855.5Z" stroke="url(#paint9_linear)" stroke-width="2" stroke-linejoin="round"/>
<ellipse cx="1407.75" cy="862.793" rx="4.14264" ry="4.12663" fill="#979797"/>
<path d="M1408.58 863.138C1408.58 863.294 1408.62 863.356 1408.74 863.356C1409 863.356 1409.16 863.027 1409.16 862.481C1409.16 861.646 1408.55 861.247 1407.79 861.247C1407.01 861.247 1406.29 861.771 1406.29 862.761C1406.29 863.707 1406.92 864.222 1407.87 864.222C1408.2 864.222 1408.42 864.186 1408.75 864.075L1408.82 864.372C1408.49 864.479 1408.14 864.51 1407.87 864.51C1406.61 864.51 1405.94 863.822 1405.94 862.761C1405.94 861.691 1406.72 860.962 1407.79 860.962C1408.91 860.962 1409.5 861.628 1409.5 862.445C1409.5 863.138 1409.29 863.666 1408.6 863.666C1408.29 863.666 1408.08 863.542 1408.06 863.267C1407.98 863.573 1407.76 863.666 1407.47 863.666C1407.09 863.666 1406.76 863.369 1406.76 862.77C1406.76 862.166 1407.05 861.793 1407.56 861.793C1407.83 861.793 1408 861.899 1408.07 862.068L1408.2 861.833H1408.58V863.138H1408.58V863.138ZM1408.03 862.552C1408.03 862.308 1407.85 862.206 1407.7 862.206C1407.53 862.206 1407.35 862.339 1407.35 862.73C1407.35 863.041 1407.49 863.214 1407.7 863.214C1407.84 863.214 1408.03 863.12 1408.03 862.863V862.552Z" fill="black"/>
<ellipse cx="1380.69" cy="836.573" rx="26.4092" ry="26.5652" fill="black"/>
<path d="M1362.82 821.94C1361.34 821.94 1360.13 823.145 1360.13 824.631V824.631C1360.13 830.987 1363.01 836.664 1367.5 840.443C1368.94 841.651 1369.95 843.354 1369.95 845.231V845.231C1369.95 848.22 1372.37 850.643 1375.36 850.643H1393.13C1395.11 850.643 1396.72 849.036 1396.72 847.055V847.055C1396.72 842.283 1387.2 839.879 1382.44 839.879H1381.99C1373.52 839.879 1366.38 832.703 1366.38 824.631V824.631C1366.38 823.145 1365.17 821.94 1363.69 821.94H1362.82ZM1382.44 821.94C1380.55 821.94 1378.73 822.696 1377.39 824.042C1376.05 825.387 1375.3 827.213 1375.3 829.116C1375.3 831.019 1376.05 832.844 1377.39 834.19C1378.73 835.535 1380.55 836.291 1382.44 836.291C1384.33 836.291 1386.15 835.535 1387.49 834.19C1388.83 832.844 1389.58 831.019 1389.58 829.116C1389.58 827.213 1388.83 825.387 1387.49 824.042C1386.15 822.696 1384.33 821.94 1382.44 821.94Z" fill="#C9C9C9"/>
</g>
<g opacity="0.3">
<rect width="258" height="259" transform="translate(1025 882)" fill="white"/>
<ellipse cx="1245.14" cy="1007.71" rx="7.2216" ry="6.99068" fill="#C4C4C4"/>
<ellipse cx="1151.26" cy="1101.7" rx="7.2216" ry="7.2496" fill="#C4C4C4"/>
<path d="M1151.1 1100.42C1150.33 1100.42 1149.7 1101.05 1149.7 1101.83C1149.7 1102.6 1150.33 1103.23 1151.1 1103.23C1151.87 1103.23 1152.49 1102.6 1152.49 1101.83C1152.49 1101.05 1151.87 1100.42 1151.1 1100.42ZM1155.29 1101.83C1155.29 1101.25 1155.29 1100.67 1155.26 1100.09C1155.23 1099.42 1155.08 1098.82 1154.59 1098.32C1154.09 1097.83 1153.5 1097.68 1152.83 1097.65C1152.25 1097.61 1151.68 1097.62 1151.1 1097.62C1150.52 1097.62 1149.94 1097.61 1149.37 1097.65C1148.7 1097.68 1148.1 1097.83 1147.61 1098.32C1147.12 1098.82 1146.97 1099.42 1146.93 1100.09C1146.9 1100.67 1146.91 1101.25 1146.91 1101.83C1146.91 1102.41 1146.9 1102.98 1146.93 1103.56C1146.97 1104.24 1147.12 1104.84 1147.61 1105.33C1148.1 1105.82 1148.7 1105.97 1149.37 1106.01C1149.95 1106.04 1150.52 1106.03 1151.1 1106.03C1151.68 1106.03 1152.25 1106.04 1152.83 1106.01C1153.5 1105.97 1154.09 1105.82 1154.59 1105.33C1155.08 1104.83 1155.23 1104.24 1155.26 1103.56C1155.3 1102.98 1155.29 1102.41 1155.29 1101.83V1101.83ZM1151.1 1103.99C1149.91 1103.99 1148.95 1103.02 1148.95 1101.83C1148.95 1100.63 1149.91 1099.67 1151.1 1099.67C1152.29 1099.67 1153.25 1100.63 1153.25 1101.83C1153.25 1103.02 1152.29 1103.99 1151.1 1103.99ZM1153.34 1100.08C1153.06 1100.08 1152.83 1099.86 1152.83 1099.58C1152.83 1099.3 1153.06 1099.07 1153.34 1099.07C1153.61 1099.07 1153.84 1099.3 1153.84 1099.58C1153.84 1099.64 1153.83 1099.71 1153.8 1099.77C1153.77 1099.83 1153.74 1099.89 1153.69 1099.94C1153.64 1099.98 1153.59 1100.02 1153.53 1100.04C1153.47 1100.07 1153.4 1100.08 1153.34 1100.08V1100.08Z" fill="black"/>
<path d="M1149.19 1035.96L1150.49 1092.56C1150.49 1092.56 1150.49 1092.56 1150.5 1092.56C1150.5 1092.56 1150.5 1092.56 1150.5 1092.56L1149.2 1035.96C1149.2 1035.96 1149.2 1035.96 1149.2 1035.96C1149.19 1035.96 1149.19 1035.95 1149.19 1035.96Z" stroke="url(#paint10_linear)" stroke-width="2" stroke-linejoin="round"/>
<path d="M1149.49 979.678L1150.94 930.092C1150.94 929.985 1150.86 929.899 1150.75 929.896C1150.65 929.893 1150.56 929.977 1150.55 930.083L1149.1 979.647C1149.1 979.753 1149.18 979.842 1149.29 979.845C1149.4 979.849 1149.49 979.785 1149.49 979.678Z" stroke="url(#paint11_linear)" stroke-width="2" stroke-linejoin="round"/>
<ellipse cx="1151.26" cy="920.977" rx="7.2216" ry="7.2496" fill="#C4C4C4"/>
<path d="M1150.23 924.735V921.241H1149.32V919.983H1150.23V918.909C1150.23 918.064 1150.76 917.289 1152 917.289C1152.49 917.289 1152.86 917.338 1152.86 917.338L1152.83 918.512C1152.83 918.512 1152.46 918.509 1152.05 918.509C1151.6 918.509 1151.53 918.718 1151.53 919.064V919.983H1152.87L1152.81 921.241H1151.53V924.735H1150.23Z" fill="black"/>
<path d="M1167.49 983.289L1174.19 973.578C1174.4 973.272 1174.32 972.855 1174.02 972.643C1173.72 972.431 1173.3 972.507 1173.09 972.812L1166.39 982.518C1166.18 982.823 1166.25 983.242 1166.56 983.454C1166.86 983.666 1167.28 983.594 1167.49 983.289Z" stroke="url(#paint12_linear)" stroke-width="2" stroke-linejoin="round"/>
<ellipse cx="1177.56" cy="966.546" rx="4.12663" ry="4.14262" fill="#999999"/>
<path d="M1118.78 1006.94H1068.72C1068.15 1006.94 1067.69 1007.4 1067.69 1007.97C1067.69 1008.54 1068.16 1009.01 1068.73 1009.01H1118.76C1119.33 1009.01 1119.79 1008.54 1119.79 1007.97C1119.79 1007.4 1119.35 1006.94 1118.78 1006.94Z" stroke="url(#paint13_linear)" stroke-width="2" stroke-linejoin="round"/>
<ellipse cx="1057.38" cy="1007.71" rx="7.2216" ry="6.99068" fill="#C4C4C4"/>
<path d="M1059.18 1008.69C1059.18 1009.05 1059.28 1009.19 1059.55 1009.19C1060.13 1009.19 1060.5 1008.44 1060.5 1007.19C1060.5 1005.29 1059.12 1004.38 1057.4 1004.38C1055.63 1004.38 1054.01 1005.57 1054.01 1007.83C1054.01 1009.99 1055.42 1011.17 1057.59 1011.17C1058.33 1011.17 1058.82 1011.08 1059.58 1010.83L1059.74 1011.51C1058.99 1011.75 1058.2 1011.82 1057.58 1011.82C1054.74 1011.82 1053.22 1010.25 1053.22 1007.83C1053.22 1005.39 1054.98 1003.73 1057.41 1003.73C1059.94 1003.73 1061.28 1005.25 1061.28 1007.11C1061.28 1008.69 1060.79 1009.9 1059.23 1009.9C1058.53 1009.9 1058.07 1009.62 1058 1008.99C1057.82 1009.69 1057.34 1009.9 1056.68 1009.9C1055.81 1009.9 1055.07 1009.22 1055.07 1007.85C1055.07 1006.48 1055.72 1005.62 1056.88 1005.62C1057.49 1005.62 1057.87 1005.87 1058.04 1006.25L1058.34 1005.72H1059.18V1008.69H1059.18V1008.69ZM1057.95 1007.36C1057.95 1006.8 1057.53 1006.57 1057.19 1006.57C1056.82 1006.57 1056.4 1006.87 1056.4 1007.76C1056.4 1008.47 1056.72 1008.87 1057.19 1008.87C1057.52 1008.87 1057.95 1008.65 1057.95 1008.07V1007.36Z" fill="black"/>
<path d="M1171.15 1027.06L1174.75 1030.67C1174.87 1030.8 1175.07 1030.8 1175.19 1030.67C1175.32 1030.55 1175.32 1030.35 1175.19 1030.23L1171.6 1026.62C1171.47 1026.49 1171.27 1026.49 1171.15 1026.62C1171.03 1026.74 1171.03 1026.94 1171.15 1027.06Z" stroke="url(#paint14_linear)" stroke-width="2" stroke-linejoin="round"/>
<ellipse cx="1180.14" cy="1034.38" rx="4.12664" ry="4.14262" fill="#979797"/>
<path d="M1180.97 1034.73C1180.97 1034.88 1181.02 1034.95 1181.13 1034.95C1181.39 1034.95 1181.55 1034.62 1181.55 1034.07C1181.55 1033.23 1180.95 1032.83 1180.19 1032.83C1179.41 1032.83 1178.7 1033.36 1178.7 1034.35C1178.7 1035.3 1179.32 1035.82 1180.27 1035.82C1180.6 1035.82 1180.81 1035.78 1181.15 1035.67L1181.22 1035.97C1180.89 1036.07 1180.54 1036.1 1180.27 1036.1C1179.02 1036.1 1178.35 1035.41 1178.35 1034.35C1178.35 1033.27 1179.12 1032.54 1180.19 1032.54C1181.31 1032.54 1181.89 1033.21 1181.89 1034.03C1181.89 1034.73 1181.68 1035.26 1180.99 1035.26C1180.68 1035.26 1180.48 1035.13 1180.45 1034.86C1180.37 1035.16 1180.16 1035.26 1179.87 1035.26C1179.49 1035.26 1179.16 1034.96 1179.16 1034.36C1179.16 1033.75 1179.45 1033.38 1179.96 1033.38C1180.23 1033.38 1180.4 1033.48 1180.47 1033.65L1180.6 1033.42H1180.97V1034.73H1180.97V1034.73ZM1180.43 1034.14C1180.43 1033.89 1180.25 1033.79 1180.09 1033.79C1179.93 1033.79 1179.75 1033.93 1179.75 1034.32C1179.75 1034.63 1179.89 1034.8 1180.09 1034.8C1180.24 1034.8 1180.43 1034.71 1180.43 1034.45V1034.14Z" fill="black"/>
<ellipse cx="1153.19" cy="1008.06" rx="26.3073" ry="26.6682" fill="black"/>
<path d="M1135.42 993.37C1133.92 993.37 1132.72 994.579 1132.72 996.071V996.071C1132.72 1002.45 1135.58 1008.15 1140.05 1011.94C1141.49 1013.16 1142.49 1014.86 1142.49 1016.74V1016.74C1142.49 1019.75 1144.93 1022.18 1147.93 1022.18H1165.56C1167.55 1022.18 1169.16 1020.57 1169.16 1018.58V1018.58C1169.16 1013.79 1159.68 1011.38 1154.94 1011.38H1154.49C1146.05 1011.38 1138.94 1004.18 1138.94 996.071V996.071C1138.94 994.579 1137.73 993.37 1136.24 993.37H1135.42ZM1154.94 993.37C1153.05 993.37 1151.24 994.129 1149.91 995.48C1148.57 996.831 1147.83 998.663 1147.83 1000.57C1147.83 1002.48 1148.57 1004.32 1149.91 1005.67C1151.24 1007.02 1153.05 1007.78 1154.94 1007.78C1156.82 1007.78 1158.63 1007.02 1159.96 1005.67C1161.3 1004.32 1162.05 1002.48 1162.05 1000.57C1162.05 998.663 1161.3 996.831 1159.96 995.48C1158.63 994.129 1156.82 993.37 1154.94 993.37Z" fill="#C9C9C9"/>
</g>
<g opacity="0.3">
<rect width="258" height="258" transform="translate(1386 42)" fill="white"/>
<ellipse cx="1606.14" cy="167.228" rx="7.2216" ry="6.96368" fill="#C4C4C4"/>
<circle cx="1512.26" cy="260.851" r="7.2216" fill="#C4C4C4"/>
<path d="M1512.1 259.579C1511.33 259.579 1510.7 260.208 1510.7 260.977C1510.7 261.747 1511.33 262.376 1512.1 262.376C1512.87 262.376 1513.49 261.747 1513.49 260.977C1513.49 260.208 1512.87 259.579 1512.1 259.579ZM1516.29 260.977C1516.29 260.398 1516.29 259.825 1516.26 259.247C1516.23 258.576 1516.08 257.98 1515.59 257.489C1515.09 256.997 1514.5 256.845 1513.83 256.812C1513.25 256.78 1512.68 256.785 1512.1 256.785C1511.52 256.785 1510.94 256.78 1510.37 256.812C1509.7 256.845 1509.1 256.998 1508.61 257.489C1508.12 257.981 1507.97 258.576 1507.93 259.247C1507.9 259.826 1507.91 260.4 1507.91 260.977C1507.91 261.555 1507.9 262.13 1507.93 262.708C1507.97 263.379 1508.12 263.975 1508.61 264.466C1509.1 264.958 1509.7 265.11 1510.37 265.142C1510.95 265.175 1511.52 265.17 1512.1 265.17C1512.68 265.17 1513.25 265.175 1513.83 265.142C1514.5 265.11 1515.09 264.957 1515.59 264.466C1516.08 263.974 1516.23 263.379 1516.26 262.708C1516.3 262.13 1516.29 261.556 1516.29 260.977V260.977ZM1512.1 263.129C1510.91 263.129 1509.95 262.168 1509.95 260.977C1509.95 259.787 1510.91 258.826 1512.1 258.826C1513.29 258.826 1514.25 259.787 1514.25 260.977C1514.25 262.168 1513.29 263.129 1512.1 263.129ZM1514.34 259.241C1514.06 259.241 1513.83 259.016 1513.83 258.738C1513.83 258.46 1514.06 258.236 1514.34 258.236C1514.61 258.236 1514.84 258.46 1514.84 258.738C1514.84 258.804 1514.83 258.87 1514.8 258.931C1514.77 258.991 1514.74 259.047 1514.69 259.094C1514.64 259.14 1514.59 259.177 1514.53 259.202C1514.47 259.228 1514.4 259.241 1514.34 259.241V259.241Z" fill="black"/>
<path d="M1510.19 195.362L1511.49 251.744C1511.49 251.746 1511.49 251.748 1511.5 251.748C1511.5 251.748 1511.5 251.746 1511.5 251.744L1510.2 195.366C1510.2 195.363 1510.2 195.361 1510.2 195.361C1510.19 195.362 1510.19 195.359 1510.19 195.362Z" stroke="url(#paint15_linear)" stroke-width="2" stroke-linejoin="round"/>
<path d="M1510.49 139.301L1511.94 89.907C1511.94 89.8004 1511.86 89.7144 1511.75 89.7113C1511.65 89.7081 1511.56 89.7919 1511.55 89.8985L1510.1 139.269C1510.1 139.376 1510.18 139.465 1510.29 139.468C1510.4 139.471 1510.49 139.407 1510.49 139.301Z" stroke="url(#paint16_linear)" stroke-width="2" stroke-linejoin="round"/>
<ellipse cx="1512.26" cy="80.8267" rx="7.2216" ry="7.22161" fill="#C4C4C4"/>
<path d="M1511.23 84.5701V81.0896H1510.32V79.8364H1511.23V78.7661C1511.23 77.925 1511.76 77.1526 1513 77.1526C1513.49 77.1526 1513.86 77.2012 1513.86 77.2012L1513.83 78.3714C1513.83 78.3714 1513.46 78.3677 1513.05 78.3677C1512.6 78.3677 1512.53 78.5759 1512.53 78.9214V79.8364H1513.87L1513.81 81.0896H1512.53V84.5701H1511.23Z" fill="black"/>
<path d="M1528.49 142.897L1535.19 133.225C1535.4 132.92 1535.32 132.504 1535.02 132.293C1534.72 132.082 1534.3 132.158 1534.09 132.462L1527.39 142.129C1527.18 142.434 1527.25 142.852 1527.56 143.063C1527.86 143.273 1528.28 143.201 1528.49 142.897Z" stroke="url(#paint17_linear)" stroke-width="2" stroke-linejoin="round"/>
<circle cx="1538.56" cy="126.22" r="4.12663" fill="#999999"/>
<path d="M1479.78 166.454H1429.72C1429.15 166.454 1428.69 166.916 1428.69 167.486C1428.69 168.056 1429.16 168.518 1429.72 168.518H1479.76C1480.33 168.518 1480.79 168.056 1480.79 167.486C1480.79 166.916 1480.35 166.454 1479.78 166.454Z" stroke="url(#paint18_linear)" stroke-width="2" stroke-linejoin="round"/>
<ellipse cx="1418.38" cy="167.228" rx="7.2216" ry="6.96368" fill="#C4C4C4"/>
<path d="M1420.18 168.205C1420.18 168.558 1420.28 168.699 1420.55 168.699C1421.13 168.699 1421.5 167.953 1421.5 166.711C1421.5 164.814 1420.12 163.906 1418.4 163.906C1416.63 163.906 1415.01 165.097 1415.01 167.347C1415.01 169.496 1416.42 170.667 1418.59 170.667C1419.33 170.667 1419.82 170.586 1420.58 170.334L1420.74 171.01C1419.99 171.252 1419.2 171.322 1418.58 171.322C1415.74 171.322 1414.22 169.758 1414.22 167.347C1414.22 164.915 1415.98 163.26 1418.41 163.26C1420.94 163.26 1422.28 164.774 1422.28 166.63C1422.28 168.204 1421.79 169.405 1420.23 169.405C1419.53 169.405 1419.07 169.123 1419 168.497C1418.82 169.193 1418.34 169.405 1417.68 169.405C1416.81 169.405 1416.07 168.729 1416.07 167.367C1416.07 165.995 1416.72 165.147 1417.88 165.147C1418.49 165.147 1418.87 165.389 1419.04 165.773L1419.34 165.238H1420.18V168.205H1420.18V168.205ZM1418.95 166.873C1418.95 166.318 1418.53 166.086 1418.19 166.086C1417.82 166.086 1417.4 166.388 1417.4 167.277C1417.4 167.983 1417.72 168.376 1418.19 168.376C1418.52 168.376 1418.95 168.165 1418.95 167.579V166.873Z" fill="black"/>
<path d="M1532.15 186.5L1535.75 190.099C1535.87 190.221 1536.07 190.221 1536.19 190.098C1536.32 189.975 1536.32 189.777 1536.19 189.654L1532.6 186.057C1532.47 185.935 1532.27 185.935 1532.15 186.057C1532.03 186.18 1532.03 186.378 1532.15 186.5Z" stroke="url(#paint19_linear)" stroke-width="2" stroke-linejoin="round"/>
<ellipse cx="1541.14" cy="193.793" rx="4.12664" ry="4.12663" fill="#979797"/>
<path d="M1541.97 194.138C1541.97 194.294 1542.02 194.356 1542.13 194.356C1542.39 194.356 1542.55 194.027 1542.55 193.481C1542.55 192.647 1541.95 192.247 1541.19 192.247C1540.41 192.247 1539.7 192.771 1539.7 193.761C1539.7 194.707 1540.32 195.222 1541.27 195.222C1541.6 195.222 1541.81 195.186 1542.15 195.075L1542.22 195.372C1541.89 195.479 1541.54 195.51 1541.27 195.51C1540.02 195.51 1539.35 194.822 1539.35 193.761C1539.35 192.691 1540.12 191.963 1541.19 191.963C1542.31 191.963 1542.89 192.629 1542.89 193.446C1542.89 194.138 1542.68 194.667 1541.99 194.667C1541.68 194.667 1541.48 194.542 1541.45 194.267C1541.37 194.573 1541.16 194.667 1540.87 194.667C1540.49 194.667 1540.16 194.369 1540.16 193.77C1540.16 193.166 1540.45 192.793 1540.96 192.793C1541.23 192.793 1541.4 192.899 1541.47 193.068L1541.6 192.833H1541.97V194.138H1541.97V194.138ZM1541.43 193.552C1541.43 193.308 1541.25 193.206 1541.09 193.206C1540.93 193.206 1540.75 193.339 1540.75 193.73C1540.75 194.041 1540.89 194.214 1541.09 194.214C1541.24 194.214 1541.43 194.121 1541.43 193.863V193.552Z" fill="black"/>
<ellipse cx="1514.19" cy="167.573" rx="26.3073" ry="26.5652" fill="black"/>
<path d="M1496.41 152.94C1494.92 152.94 1493.72 154.145 1493.72 155.631V155.631C1493.72 161.986 1496.58 167.662 1501.05 171.441C1502.49 172.65 1503.49 174.352 1503.49 176.227V176.227C1503.49 179.218 1505.92 181.643 1508.91 181.643H1526.57C1528.55 181.643 1530.16 180.036 1530.16 178.055V178.055C1530.16 173.283 1520.68 170.879 1515.94 170.879H1515.49C1507.05 170.879 1499.94 163.704 1499.94 155.631V155.631C1499.94 154.145 1498.73 152.94 1497.25 152.94H1496.41ZM1515.94 152.94C1514.05 152.94 1512.24 153.696 1510.91 155.042C1509.57 156.387 1508.83 158.213 1508.83 160.116C1508.83 162.019 1509.57 163.844 1510.91 165.19C1512.24 166.535 1514.05 167.291 1515.94 167.291C1517.82 167.291 1519.63 166.535 1520.96 165.19C1522.3 163.844 1523.05 162.019 1523.05 160.116C1523.05 158.213 1522.3 156.387 1520.96 155.042C1519.63 153.696 1517.82 152.94 1515.94 152.94Z" fill="#C9C9C9"/>
</g>
<g opacity="0.3">
<rect width="258" height="258" transform="translate(1663 651)" fill="white"/>
<ellipse cx="1883.14" cy="776.228" rx="7.2216" ry="6.96368" fill="#C4C4C4"/>
<circle cx="1789.26" cy="869.851" r="7.2216" fill="#C4C4C4"/>
<path d="M1789.1 868.579C1788.33 868.579 1787.7 869.208 1787.7 869.977C1787.7 870.747 1788.33 871.376 1789.1 871.376C1789.87 871.376 1790.49 870.747 1790.49 869.977C1790.49 869.208 1789.87 868.579 1789.1 868.579ZM1793.29 869.977C1793.29 869.399 1793.29 868.825 1793.26 868.247C1793.23 867.576 1793.08 866.98 1792.59 866.489C1792.09 865.997 1791.5 865.845 1790.83 865.813C1790.25 865.78 1789.68 865.785 1789.1 865.785C1788.52 865.785 1787.94 865.78 1787.37 865.813C1786.7 865.845 1786.1 865.998 1785.61 866.489C1785.12 866.981 1784.97 867.576 1784.93 868.247C1784.9 868.826 1784.91 869.4 1784.91 869.977C1784.91 870.555 1784.9 871.13 1784.93 871.708C1784.97 872.379 1785.12 872.975 1785.61 873.466C1786.1 873.958 1786.7 874.11 1787.37 874.142C1787.95 874.175 1788.52 874.17 1789.1 874.17C1789.68 874.17 1790.25 874.175 1790.83 874.142C1791.5 874.11 1792.09 873.957 1792.59 873.466C1793.08 872.974 1793.23 872.379 1793.26 871.708C1793.3 871.13 1793.29 870.556 1793.29 869.977V869.977ZM1789.1 872.129C1787.91 872.129 1786.95 871.168 1786.95 869.977C1786.95 868.787 1787.91 867.826 1789.1 867.826C1790.29 867.826 1791.25 868.787 1791.25 869.977C1791.25 871.168 1790.29 872.129 1789.1 872.129ZM1791.34 868.241C1791.06 868.241 1790.83 868.016 1790.83 867.738C1790.83 867.46 1791.06 867.236 1791.34 867.236C1791.61 867.236 1791.84 867.46 1791.84 867.738C1791.84 867.804 1791.83 867.87 1791.8 867.931C1791.77 867.992 1791.74 868.047 1791.69 868.094C1791.64 868.14 1791.59 868.177 1791.53 868.203C1791.47 868.228 1791.4 868.241 1791.34 868.241V868.241Z" fill="black"/>
<path d="M1787.19 804.362L1788.49 860.744C1788.49 860.746 1788.49 860.748 1788.5 860.748C1788.5 860.748 1788.5 860.746 1788.5 860.744L1787.2 804.366C1787.2 804.363 1787.2 804.362 1787.2 804.362C1787.19 804.362 1787.19 804.36 1787.19 804.362Z" stroke="url(#paint20_linear)" stroke-width="2" stroke-linejoin="round"/>
<path d="M1787.49 748.301L1788.94 698.907C1788.94 698.8 1788.86 698.714 1788.75 698.711C1788.65 698.708 1788.56 698.792 1788.55 698.898L1787.1 748.269C1787.1 748.376 1787.18 748.464 1787.29 748.468C1787.4 748.471 1787.49 748.407 1787.49 748.301Z" stroke="url(#paint21_linear)" stroke-width="2" stroke-linejoin="round"/>
<ellipse cx="1789.26" cy="689.827" rx="7.2216" ry="7.22161" fill="#C4C4C4"/>
<path d="M1788.23 693.57V690.089H1787.32V688.836H1788.23V687.766C1788.23 686.925 1788.76 686.152 1790 686.152C1790.49 686.152 1790.86 686.201 1790.86 686.201L1790.83 687.371C1790.83 687.371 1790.46 687.368 1790.05 687.368C1789.6 687.368 1789.53 687.576 1789.53 687.921V688.836H1790.87L1790.81 690.089H1789.53V693.57H1788.23Z" fill="black"/>
<path d="M1805.49 751.897L1812.19 742.225C1812.4 741.92 1812.32 741.504 1812.02 741.293C1811.72 741.082 1811.3 741.158 1811.09 741.462L1804.39 751.129C1804.18 751.434 1804.25 751.851 1804.56 752.062C1804.86 752.273 1805.28 752.201 1805.49 751.897Z" stroke="url(#paint22_linear)" stroke-width="2" stroke-linejoin="round"/>
<circle cx="1815.56" cy="735.22" r="4.12663" fill="#999999"/>
<path d="M1756.78 775.454H1706.72C1706.15 775.454 1705.69 775.916 1705.69 776.486C1705.69 777.056 1706.16 777.518 1706.72 777.518H1756.76C1757.33 777.518 1757.79 777.056 1757.79 776.486C1757.79 775.916 1757.35 775.454 1756.78 775.454Z" stroke="url(#paint23_linear)" stroke-width="2" stroke-linejoin="round"/>
<ellipse cx="1695.38" cy="776.228" rx="7.2216" ry="6.96368" fill="#C4C4C4"/>
<path d="M1697.18 777.205C1697.18 777.558 1697.28 777.699 1697.55 777.699C1698.13 777.699 1698.5 776.953 1698.5 775.711C1698.5 773.814 1697.12 772.906 1695.4 772.906C1693.63 772.906 1692.01 774.097 1692.01 776.347C1692.01 778.496 1693.42 779.667 1695.59 779.667C1696.33 779.667 1696.82 779.586 1697.58 779.334L1697.74 780.01C1696.99 780.252 1696.2 780.322 1695.58 780.322C1692.74 780.322 1691.22 778.758 1691.22 776.347C1691.22 773.915 1692.98 772.26 1695.41 772.26C1697.94 772.26 1699.28 773.774 1699.28 775.63C1699.28 777.204 1698.79 778.405 1697.23 778.405C1696.53 778.405 1696.07 778.123 1696 777.497C1695.82 778.193 1695.34 778.405 1694.68 778.405C1693.81 778.405 1693.07 777.729 1693.07 776.367C1693.07 774.995 1693.72 774.147 1694.88 774.147C1695.49 774.147 1695.87 774.389 1696.04 774.773L1696.34 774.238H1697.18V777.205H1697.18V777.205ZM1695.95 775.873C1695.95 775.318 1695.53 775.086 1695.19 775.086C1694.82 775.086 1694.4 775.388 1694.4 776.277C1694.4 776.983 1694.72 777.376 1695.19 777.376C1695.52 777.376 1695.95 777.165 1695.95 776.579V775.873Z" fill="black"/>
<path d="M1809.15 795.5L1812.75 799.098C1812.87 799.221 1813.07 799.221 1813.19 799.098C1813.32 798.975 1813.32 798.776 1813.19 798.654L1809.6 795.057C1809.47 794.934 1809.27 794.934 1809.15 795.057C1809.03 795.18 1809.03 795.378 1809.15 795.5Z" stroke="url(#paint24_linear)" stroke-width="2" stroke-linejoin="round"/>
<ellipse cx="1818.14" cy="802.793" rx="4.12664" ry="4.12663" fill="#979797"/>
<path d="M1818.97 803.138C1818.97 803.294 1819.02 803.356 1819.13 803.356C1819.39 803.356 1819.55 803.027 1819.55 802.481C1819.55 801.646 1818.95 801.247 1818.19 801.247C1817.41 801.247 1816.7 801.771 1816.7 802.761C1816.7 803.707 1817.32 804.222 1818.27 804.222C1818.6 804.222 1818.81 804.186 1819.15 804.075L1819.22 804.372C1818.89 804.479 1818.54 804.51 1818.27 804.51C1817.02 804.51 1816.35 803.822 1816.35 802.761C1816.35 801.691 1817.12 800.962 1818.19 800.962C1819.31 800.962 1819.9 801.628 1819.9 802.445C1819.9 803.138 1819.68 803.666 1819 803.666C1818.68 803.666 1818.48 803.542 1818.45 803.267C1818.37 803.573 1818.16 803.666 1817.87 803.666C1817.49 803.666 1817.16 803.369 1817.16 802.77C1817.16 802.166 1817.45 801.793 1817.96 801.793C1818.23 801.793 1818.4 801.899 1818.47 802.068L1818.6 801.833H1818.97V803.138H1818.97V803.138ZM1818.43 802.552C1818.43 802.308 1818.25 802.206 1818.1 802.206C1817.93 802.206 1817.75 802.339 1817.75 802.73C1817.75 803.041 1817.89 803.214 1818.1 803.214C1818.24 803.214 1818.43 803.12 1818.43 802.863V802.552Z" fill="black"/>
<ellipse cx="1791.19" cy="776.573" rx="26.3073" ry="26.5652" fill="black"/>
<path d="M1773.41 761.94C1771.92 761.94 1770.72 763.145 1770.72 764.631V764.631C1770.72 770.986 1773.58 776.662 1778.05 780.441C1779.49 781.65 1780.49 783.352 1780.49 785.227V785.227C1780.49 788.218 1782.92 790.643 1785.91 790.643H1803.57C1805.55 790.643 1807.16 789.036 1807.16 787.055V787.055C1807.16 782.283 1797.68 779.879 1792.94 779.879H1792.49C1784.05 779.879 1776.94 772.703 1776.94 764.631V764.631C1776.94 763.145 1775.73 761.94 1774.25 761.94H1773.41ZM1792.94 761.94C1791.05 761.94 1789.24 762.696 1787.91 764.042C1786.57 765.387 1785.83 767.213 1785.83 769.116C1785.83 771.019 1786.57 772.844 1787.91 774.19C1789.24 775.535 1791.05 776.291 1792.94 776.291C1794.82 776.291 1796.63 775.535 1797.96 774.19C1799.3 772.844 1800.05 771.019 1800.05 769.116C1800.05 767.213 1799.3 765.387 1797.96 764.042C1796.63 762.696 1794.82 761.94 1792.94 761.94Z" fill="#C9C9C9"/>
</g>
<g opacity="0.3">
<rect width="144" height="143" transform="translate(1504 880)" fill="white"/>
<ellipse cx="1576" cy="949.409" rx="14.6831" ry="14.7241" fill="black"/>
<ellipse cx="1628.4" cy="949.409" rx="4.03065" ry="3.85972" fill="#C4C4C4"/>
<ellipse cx="1523.6" cy="949.409" rx="4.03066" ry="3.85972" fill="#C4C4C4"/>
<ellipse cx="1590.68" cy="926.68" rx="2.30326" ry="2.28724" fill="#999999"/>
<ellipse cx="1592.12" cy="964.133" rx="2.30323" ry="2.28724" fill="#979797"/>
<ellipse cx="1576" cy="1001.3" rx="4.03067" ry="4.00266" fill="#C4C4C4"/>
<ellipse cx="1576" cy="901.52" rx="4.03067" ry="4.00268" fill="#C4C4C4"/>
<path d="M1557.88 948.98H1529.93C1529.61 948.98 1529.36 949.237 1529.36 949.552C1529.36 949.868 1529.62 950.124 1529.93 950.124H1557.87C1558.18 950.124 1558.44 949.868 1558.44 949.552C1558.44 949.237 1558.19 948.98 1557.88 948.98Z" stroke="url(#paint25_linear)" stroke-width="2" stroke-linejoin="round"/>
<path d="M1585.06 935.923L1588.8 930.563C1588.92 930.394 1588.87 930.163 1588.7 930.046C1588.53 929.929 1588.3 929.972 1588.18 930.141L1584.45 935.497C1584.33 935.666 1584.37 935.898 1584.54 936.015C1584.71 936.132 1584.94 936.092 1585.06 935.923Z" stroke="url(#paint26_linear)" stroke-width="2" stroke-linejoin="round"/>
<path d="M1574.85 965.003L1575.57 996.254C1575.57 996.255 1575.57 996.256 1575.57 996.256C1575.58 996.256 1575.58 996.255 1575.58 996.254L1574.85 965.005C1574.85 965.004 1574.85 965.003 1574.85 965.003C1574.85 965.003 1574.85 965.002 1574.85 965.003Z" stroke="url(#paint27_linear)" stroke-width="2" stroke-linejoin="round"/>
<path d="M1575.01 933.93L1575.82 906.554C1575.82 906.494 1575.78 906.446 1575.72 906.445C1575.66 906.443 1575.61 906.49 1575.61 906.549L1574.8 933.912C1574.8 933.971 1574.84 934.021 1574.9 934.023C1574.96 934.025 1575.01 933.989 1575.01 933.93Z" stroke="url(#paint28_linear)" stroke-width="2" stroke-linejoin="round"/>
</g>
<g opacity="0.3">
<rect width="193" height="193" transform="translate(2711 754)" fill="white"/>
<ellipse cx="2807.5" cy="847.678" rx="19.6795" ry="19.8724" fill="black"/>
<ellipse cx="2877.73" cy="847.678" rx="5.40219" ry="5.20927" fill="#C4C4C4"/>
<ellipse cx="2737.27" cy="847.678" rx="5.40221" ry="5.20927" fill="#C4C4C4"/>
<ellipse cx="2827.18" cy="817.002" rx="3.08699" ry="3.08697" fill="#999999"/>
<circle cx="2829.11" cy="867.551" r="3.08697" fill="#979797"/>
<ellipse cx="2807.5" cy="917.714" rx="5.40222" ry="5.4022" fill="#C4C4C4"/>
<ellipse cx="2807.5" cy="783.045" rx="5.40222" ry="5.40221" fill="#C4C4C4"/>
<path d="M2783.2 847.1H2745.75C2745.33 847.1 2744.99 847.445 2744.99 847.871C2744.99 848.297 2745.33 848.643 2745.76 848.643H2783.19C2783.62 848.643 2783.96 848.297 2783.96 847.871C2783.96 847.445 2783.63 847.1 2783.2 847.1Z" stroke="url(#paint29_linear)" stroke-width="2" stroke-linejoin="round"/>
<path d="M2819.64 829.477L2824.66 822.242C2824.81 822.014 2824.76 821.703 2824.53 821.545C2824.3 821.387 2823.99 821.444 2823.83 821.671L2818.82 828.903C2818.66 829.131 2818.72 829.443 2818.94 829.601C2819.17 829.759 2819.48 829.705 2819.64 829.477Z" stroke="url(#paint30_linear)" stroke-width="2" stroke-linejoin="round"/>
<path d="M2805.95 868.724L2806.93 910.902C2806.93 910.904 2806.93 910.905 2806.93 910.905C2806.93 910.905 2806.93 910.903 2806.93 910.902L2805.96 868.727C2805.96 868.725 2805.96 868.724 2805.96 868.724C2805.96 868.724 2805.95 868.723 2805.95 868.724Z" stroke="url(#paint31_linear)" stroke-width="2" stroke-linejoin="round"/>
<path d="M2806.18 826.787L2807.26 789.837C2807.26 789.758 2807.2 789.693 2807.12 789.691C2807.04 789.689 2806.98 789.751 2806.97 789.831L2805.89 826.763C2805.89 826.843 2805.95 826.91 2806.03 826.912C2806.11 826.914 2806.17 826.867 2806.18 826.787Z" stroke="url(#paint32_linear)" stroke-width="2" stroke-linejoin="round"/>
</g>
<g opacity="0.3">
<rect width="637" height="637" transform="translate(3339 -318)" fill="white"/>
<ellipse cx="3657.5" cy="-8.81311" rx="64.9524" ry="65.5892" fill="black"/>
<ellipse cx="3425.71" cy="-8.81317" rx="17.8301" ry="17.1933" fill="#C4C4C4"/>
<ellipse cx="3657.5" cy="222.341" rx="17.8301" ry="17.83" fill="#C4C4C4"/>
<path d="M3652.4 60.6495L3655.61 199.857C3655.61 199.863 3655.61 199.867 3655.62 199.867C3655.62 199.867 3655.63 199.862 3655.63 199.856L3652.42 60.6589C3652.42 60.6532 3652.41 60.6487 3652.41 60.6488C3652.4 60.6489 3652.4 60.6438 3652.4 60.6495Z" stroke="url(#paint33_linear)" stroke-width="2" stroke-linejoin="round"/>
</g>
<g opacity="0.3">
<rect width="194" height="194" transform="translate(-28 1318)" fill="white"/>
<ellipse cx="69" cy="1412.16" rx="19.7814" ry="19.9754" fill="black"/>
<ellipse cx="139.593" cy="1412.16" rx="5.43019" ry="5.23626" fill="#C4C4C4"/>
<ellipse cx="-1.59257" cy="1412.16" rx="5.4302" ry="5.23626" fill="#C4C4C4"/>
<ellipse cx="88.7814" cy="1381.33" rx="3.10299" ry="3.10296" fill="#999999"/>
<ellipse cx="90.7208" cy="1432.14" rx="3.10296" ry="3.10297" fill="#979797"/>
<ellipse cx="69" cy="1482.56" rx="5.4302" ry="5.43019" fill="#C4C4C4"/>
<ellipse cx="69" cy="1347.2" rx="5.4302" ry="5.4302" fill="#C4C4C4"/>
<path d="M44.5782 1411.58H6.93469C6.50626 1411.58 6.16483 1411.93 6.16483 1412.36C6.16483 1412.79 6.51214 1413.13 6.94057 1413.13H44.5641C44.9925 1413.13 45.3398 1412.79 45.3398 1412.36C45.3398 1411.93 45.0066 1411.58 44.5782 1411.58Z" stroke="url(#paint34_linear)" stroke-width="2" stroke-linejoin="round"/>
<path d="M81.2038 1393.87L86.2442 1386.6C86.4028 1386.37 86.3452 1386.05 86.1163 1385.89C85.8875 1385.74 85.5733 1385.79 85.4147 1386.02L80.3768 1393.29C80.2182 1393.52 80.2752 1393.83 80.504 1393.99C80.7329 1394.15 81.0451 1394.1 81.2038 1393.87Z" stroke="url(#paint35_linear)" stroke-width="2" stroke-linejoin="round"/>
<path d="M67.4464 1433.32L68.4235 1475.71C68.4236 1475.72 68.425 1475.72 68.4268 1475.72C68.4285 1475.72 68.4299 1475.72 68.4298 1475.71L67.4527 1433.32C67.4527 1433.32 67.4512 1433.32 67.4495 1433.32C67.4478 1433.32 67.4463 1433.32 67.4464 1433.32Z" stroke="url(#paint36_linear)" stroke-width="2" stroke-linejoin="round"/>
<path d="M67.6697 1391.16L68.7611 1354.02C68.7634 1353.94 68.7004 1353.88 68.6202 1353.88C68.5401 1353.87 68.4733 1353.94 68.4709 1354.02L67.3801 1391.14C67.3777 1391.22 67.4407 1391.29 67.5208 1391.29C67.6009 1391.29 67.6673 1391.24 67.6697 1391.16Z" stroke="url(#paint37_linear)" stroke-width="2" stroke-linejoin="round"/>
</g>
<g opacity="0.3">
<rect width="342" height="342" transform="translate(2679 1470)" fill="white"/>
<ellipse cx="2850" cy="1636" rx="34.8724" ry="35.2143" fill="black"/>
<ellipse cx="2974.45" cy="1636" rx="9.5728" ry="9.23093" fill="#C4C4C4"/>
<ellipse cx="2725.55" cy="1636" rx="9.57282" ry="9.23093" fill="#C4C4C4"/>
<ellipse cx="2884.87" cy="1581.64" rx="5.4702" ry="5.47018" fill="#999999"/>
<circle cx="2888.29" cy="1671.21" r="5.47018" fill="#979797"/>
<ellipse cx="2850" cy="1760.1" rx="9.57283" ry="9.5728" fill="#C4C4C4"/>
<ellipse cx="2850" cy="1521.47" rx="9.57283" ry="9.57283" fill="#C4C4C4"/>
<path d="M2806.95 1634.97H2740.59C2739.83 1634.97 2739.23 1635.59 2739.23 1636.34C2739.23 1637.1 2739.84 1637.71 2740.6 1637.71H2806.92C2807.68 1637.71 2808.29 1637.1 2808.29 1636.34C2808.29 1635.59 2807.7 1634.97 2806.95 1634.97Z" stroke="url(#paint38_linear)" stroke-width="2" stroke-linejoin="round"/>
<path d="M2871.51 1603.75L2880.4 1590.93C2880.68 1590.52 2880.58 1589.97 2880.17 1589.69C2879.77 1589.41 2879.22 1589.51 2878.94 1589.91L2870.06 1602.73C2869.78 1603.13 2869.88 1603.69 2870.28 1603.97C2870.68 1604.25 2871.23 1604.15 2871.51 1603.75Z" stroke="url(#paint39_linear)" stroke-width="2" stroke-linejoin="round"/>
<path d="M2847.26 1673.29L2848.98 1748.03C2848.98 1748.04 2848.99 1748.04 2848.99 1748.04C2848.99 1748.04 2848.99 1748.04 2848.99 1748.03L2847.27 1673.3C2847.27 1673.3 2847.27 1673.29 2847.27 1673.29C2847.26 1673.29 2847.26 1673.29 2847.26 1673.29Z" stroke="url(#paint40_linear)" stroke-width="2" stroke-linejoin="round"/>
<path d="M2847.65 1598.98L2849.58 1533.5C2849.58 1533.36 2849.47 1533.25 2849.33 1533.24C2849.19 1533.24 2849.07 1533.35 2849.07 1533.49L2847.14 1598.94C2847.14 1599.08 2847.25 1599.2 2847.39 1599.2C2847.53 1599.21 2847.65 1599.12 2847.65 1598.98Z" stroke="url(#paint41_linear)" stroke-width="2" stroke-linejoin="round"/>
</g>
<g opacity="0.3">
<rect width="342" height="342" transform="translate(893 500)" fill="white"/>
<ellipse cx="1064" cy="666" rx="34.8724" ry="35.2143" fill="black"/>
<ellipse cx="1188.45" cy="666" rx="9.5728" ry="9.23093" fill="#C4C4C4"/>
<ellipse cx="939.553" cy="666" rx="9.57282" ry="9.23093" fill="#C4C4C4"/>
<ellipse cx="1098.87" cy="611.64" rx="5.4702" ry="5.47018" fill="#999999"/>
<circle cx="1102.29" cy="701.214" r="5.47018" fill="#979797"/>
<ellipse cx="1064" cy="790.105" rx="9.57283" ry="9.5728" fill="#C4C4C4"/>
<ellipse cx="1064" cy="551.468" rx="9.57283" ry="9.57283" fill="#C4C4C4"/>
<path d="M1020.95 664.974H954.586C953.831 664.974 953.229 665.587 953.229 666.342C953.229 667.097 953.841 667.709 954.596 667.709H1020.92C1021.68 667.709 1022.29 667.097 1022.29 666.342C1022.29 665.587 1021.7 664.974 1020.95 664.974Z" stroke="url(#paint42_linear)" stroke-width="2" stroke-linejoin="round"/>
<path d="M1085.51 633.747L1094.4 620.926C1094.68 620.522 1094.58 619.97 1094.17 619.691C1093.77 619.411 1093.22 619.511 1092.94 619.915L1084.06 632.73C1083.78 633.133 1083.88 633.687 1084.28 633.966C1084.68 634.246 1085.23 634.15 1085.51 633.747Z" stroke="url(#paint43_linear)" stroke-width="2" stroke-linejoin="round"/>
<path d="M1061.26 703.294L1062.98 778.033C1062.98 778.036 1062.99 778.039 1062.99 778.038C1062.99 778.038 1062.99 778.036 1062.99 778.033L1061.27 703.299C1061.27 703.296 1061.27 703.293 1061.27 703.293C1061.26 703.294 1061.26 703.291 1061.26 703.294Z" stroke="url(#paint44_linear)" stroke-width="2" stroke-linejoin="round"/>
<path d="M1061.65 628.98L1063.58 563.504C1063.58 563.363 1063.47 563.249 1063.33 563.245C1063.19 563.241 1063.07 563.352 1063.07 563.493L1061.14 628.938C1061.14 629.079 1061.25 629.197 1061.39 629.201C1061.53 629.205 1061.65 629.121 1061.65 628.98Z" stroke="url(#paint45_linear)" stroke-width="2" stroke-linejoin="round"/>
</g>
<path d="M2545 123.7C2547.53 123.1 2550.27 122.7 2553.2 122.5C2556.13 122.3 2559.03 122.2 2561.9 122.2C2564.97 122.2 2568.07 122.5 2571.2 123.1C2574.4 123.7 2577.3 124.8 2579.9 126.4C2582.5 128 2584.6 130.2 2586.2 133C2587.87 135.8 2588.7 139.367 2588.7 143.7C2588.7 147.967 2587.93 151.567 2586.4 154.5C2584.87 157.433 2582.83 159.833 2580.3 161.7C2577.77 163.5 2574.87 164.8 2571.6 165.6C2568.33 166.4 2564.97 166.8 2561.5 166.8C2561.17 166.8 2560.6 166.8 2559.8 166.8C2559.07 166.8 2558.27 166.8 2557.4 166.8C2556.6 166.733 2555.8 166.667 2555 166.6C2554.2 166.533 2553.63 166.467 2553.3 166.4V193H2545V123.7ZM2562.1 129.4C2560.37 129.4 2558.7 129.433 2557.1 129.5C2555.5 129.567 2554.23 129.733 2553.3 130V159C2553.63 159.133 2554.17 159.233 2554.9 159.3C2555.63 159.3 2556.4 159.333 2557.2 159.4C2558 159.4 2558.77 159.4 2559.5 159.4C2560.23 159.4 2560.77 159.4 2561.1 159.4C2563.37 159.4 2565.6 159.2 2567.8 158.8C2570.07 158.333 2572.1 157.533 2573.9 156.4C2575.7 155.267 2577.13 153.667 2578.2 151.6C2579.33 149.533 2579.9 146.9 2579.9 143.7C2579.9 140.967 2579.37 138.7 2578.3 136.9C2577.3 135.033 2575.93 133.567 2574.2 132.5C2572.53 131.367 2570.63 130.567 2568.5 130.1C2566.37 129.633 2564.23 129.4 2562.1 129.4ZM2601.56 193V186.3H2615.06V149.7H2601.56V143H2620.26L2621.86 149.5H2622.36C2624.63 147.433 2627.16 145.667 2629.96 144.2C2632.76 142.733 2636.09 142 2639.96 142C2642.23 142 2644.03 142.433 2645.36 143.3C2646.76 144.167 2647.83 145.433 2648.56 147.1C2649.36 148.767 2649.89 150.8 2650.16 153.2C2650.43 155.533 2650.56 158.2 2650.56 161.2L2643.56 161.3C2643.56 157.033 2643.13 153.9 2642.26 151.9C2641.46 149.9 2639.96 148.9 2637.76 148.9C2635.69 148.9 2633.83 149.2 2632.16 149.8C2630.49 150.4 2629.03 151.133 2627.76 152C2626.56 152.867 2625.53 153.733 2624.66 154.6C2623.79 155.467 2623.16 156.2 2622.76 156.8V186.3H2641.96V193H2601.56ZM2660.62 168C2660.62 159.933 2662.72 153.567 2666.92 148.9C2671.12 144.167 2677.12 141.8 2684.92 141.8C2689.12 141.8 2692.72 142.5 2695.72 143.9C2698.79 145.233 2701.32 147.067 2703.32 149.4C2705.32 151.733 2706.79 154.5 2707.72 157.7C2708.72 160.9 2709.22 164.333 2709.22 168C2709.22 172 2708.69 175.633 2707.62 178.9C2706.56 182.1 2704.99 184.833 2702.92 187.1C2700.86 189.367 2698.29 191.133 2695.22 192.4C2692.22 193.6 2688.79 194.2 2684.92 194.2C2680.79 194.2 2677.19 193.533 2674.12 192.2C2671.06 190.8 2668.52 188.933 2666.52 186.6C2664.52 184.267 2663.02 181.5 2662.02 178.3C2661.09 175.1 2660.62 171.667 2660.62 168ZM2668.92 168C2668.92 170.333 2669.19 172.667 2669.72 175C2670.32 177.333 2671.26 179.433 2672.52 181.3C2673.79 183.167 2675.42 184.667 2677.42 185.8C2679.49 186.933 2681.99 187.5 2684.92 187.5C2690.26 187.5 2694.26 185.867 2696.92 182.6C2699.66 179.267 2701.02 174.4 2701.02 168C2701.02 165.6 2700.72 163.267 2700.12 161C2699.59 158.667 2698.66 156.567 2697.32 154.7C2696.06 152.833 2694.39 151.333 2692.32 150.2C2690.32 149.067 2687.86 148.5 2684.92 148.5C2679.59 148.5 2675.59 150.133 2672.92 153.4C2670.26 156.667 2668.92 161.533 2668.92 168ZM2748.48 149.7H2724.28V143H2756.48V194.2C2756.48 200.933 2754.75 205.933 2751.28 209.2C2747.88 212.533 2743.15 214.2 2737.08 214.2C2735.28 214.2 2733.52 213.967 2731.78 213.5C2730.12 213.033 2728.55 212.467 2727.08 211.8C2725.62 211.2 2724.32 210.567 2723.18 209.9C2722.12 209.233 2721.32 208.7 2720.78 208.3L2724.08 201.8C2725.88 203.133 2727.92 204.3 2730.18 205.3C2732.52 206.3 2734.92 206.8 2737.38 206.8C2741.38 206.8 2744.22 205.533 2745.88 203C2747.62 200.533 2748.48 197.1 2748.48 192.7V149.7ZM2744.28 128.8C2744.28 127 2744.88 125.467 2746.08 124.2C2747.28 122.867 2748.82 122.2 2750.68 122.2C2752.62 122.2 2754.22 122.867 2755.48 124.2C2756.82 125.467 2757.48 127 2757.48 128.8C2757.48 130.533 2756.82 132 2755.48 133.2C2754.22 134.4 2752.62 135 2750.68 135C2748.82 135 2747.28 134.4 2746.08 133.2C2744.88 132 2744.28 130.533 2744.28 128.8ZM2827.74 186.7C2826.54 187.767 2825.11 188.767 2823.44 189.7C2821.84 190.633 2820.08 191.433 2818.14 192.1C2816.21 192.767 2814.18 193.267 2812.04 193.6C2809.98 194 2807.88 194.2 2805.74 194.2C2801.74 194.2 2798.21 193.6 2795.14 192.4C2792.08 191.133 2789.51 189.367 2787.44 187.1C2785.38 184.767 2783.81 182 2782.74 178.8C2781.68 175.6 2781.14 172 2781.14 168C2781.14 163.8 2781.71 160.067 2782.84 156.8C2784.04 153.533 2785.74 150.8 2787.94 148.6C2790.14 146.4 2792.81 144.733 2795.94 143.6C2799.08 142.4 2802.58 141.8 2806.44 141.8C2809.24 141.8 2812.01 142.167 2814.74 142.9C2817.48 143.633 2819.88 145.033 2821.94 147.1C2824.08 149.1 2825.71 151.9 2826.84 155.5C2827.98 159.033 2828.38 163.633 2828.04 169.3H2789.34C2789.34 175.3 2790.94 179.8 2794.14 182.8C2797.41 185.733 2801.74 187.2 2807.14 187.2C2808.94 187.2 2810.71 187 2812.44 186.6C2814.24 186.133 2815.94 185.6 2817.54 185C2819.14 184.4 2820.54 183.733 2821.74 183C2823.01 182.267 2823.98 181.6 2824.64 181L2827.74 186.7ZM2806.64 148.4C2804.44 148.4 2802.34 148.633 2800.34 149.1C2798.41 149.567 2796.68 150.367 2795.14 151.5C2793.68 152.567 2792.44 154 2791.44 155.8C2790.51 157.533 2789.91 159.7 2789.64 162.3H2820.74C2820.41 157.9 2818.98 154.5 2816.44 152.1C2813.98 149.633 2810.71 148.4 2806.64 148.4ZM2878.7 150.7C2877.17 150.167 2875.5 149.733 2873.7 149.4C2871.97 149 2870.24 148.8 2868.5 148.8C2861.97 148.8 2857.1 150.333 2853.9 153.4C2850.7 156.467 2849.1 161.333 2849.1 168C2849.1 170.933 2849.57 173.567 2850.5 175.9C2851.44 178.167 2852.77 180.1 2854.5 181.7C2856.24 183.3 2858.3 184.533 2860.7 185.4C2863.17 186.267 2865.87 186.7 2868.8 186.7C2871.94 186.7 2874.97 186.167 2877.9 185.1C2880.9 184.033 2883.4 182.633 2885.4 180.9L2888.9 186.7C2887.97 187.5 2886.8 188.333 2885.4 189.2C2884 190.067 2882.37 190.9 2880.5 191.7C2878.7 192.433 2876.67 193.033 2874.4 193.5C2872.2 193.967 2869.8 194.2 2867.2 194.2C2862.87 194.2 2859.04 193.6 2855.7 192.4C2852.44 191.133 2849.7 189.367 2847.5 187.1C2845.3 184.767 2843.64 182 2842.5 178.8C2841.37 175.533 2840.8 171.933 2840.8 168C2840.8 163.8 2841.37 160.067 2842.5 156.8C2843.7 153.533 2845.4 150.8 2847.6 148.6C2849.8 146.4 2852.47 144.733 2855.6 143.6C2858.74 142.4 2862.24 141.8 2866.1 141.8C2871.04 141.8 2875.04 142.233 2878.1 143.1C2881.24 143.967 2883.87 144.933 2886 146L2885.9 146.3V160.2H2878.7V150.7ZM2897.87 143H2909.77V133.1L2917.57 130.9V143H2944.27V149.7H2917.57V173.3C2917.57 178.167 2918.73 181.767 2921.07 184.1C2923.47 186.433 2926.87 187.6 2931.27 187.6C2934.27 187.6 2936.87 187.033 2939.07 185.9C2941.33 184.767 2943.37 183.533 2945.17 182.2L2947.77 188.1C2945.43 189.967 2942.63 191.467 2939.37 192.6C2936.17 193.733 2932.87 194.3 2929.47 194.3C2926.8 194.3 2924.27 193.9 2921.87 193.1C2919.53 192.367 2917.47 191.2 2915.67 189.6C2913.87 188 2912.43 185.967 2911.37 183.5C2910.3 180.967 2909.77 177.967 2909.77 174.5V149.7H2897.87V143Z" fill="#B3B3B3"/>
<ellipse cx="3063" cy="159" rx="45" ry="55" fill="#B3B3B3"/>
<ellipse cx="3063" cy="159" rx="37" ry="45" fill="white"/>
<ellipse cx="3062.5" cy="159" rx="8.5" ry="9" fill="#B3B3B3"/>
<path d="M1738.5 863C1738.5 1001.92 1626.1 1114.5 1487.5 1114.5C1348.9 1114.5 1236.5 1001.92 1236.5 863C1236.5 724.078 1348.9 611.5 1487.5 611.5C1626.1 611.5 1738.5 724.078 1738.5 863Z" stroke="#BCBCBC" stroke-width="25"/>
<circle cx="1049.5" cy="906.5" r="410" stroke="#DDDDDD" stroke-width="25"/>
</g>
<defs>
<linearGradient id="paint0_linear" x1="843.704" y1="728.206" x2="827.48" y2="729.206" gradientUnits="userSpaceOnUse">
<stop stop-opacity="0.56"/>
<stop offset="1" stop-color="#999999"/>
</linearGradient>
<linearGradient id="paint1_linear" x1="841.997" y1="1097.16" x2="999.161" y2="802.641" gradientUnits="userSpaceOnUse">
<stop stop-opacity="0.56"/>
<stop offset="1" stop-color="#999999"/>
</linearGradient>
<linearGradient id="paint2_linear" x1="846.909" y1="925.929" x2="905.742" y2="847.508" gradientUnits="userSpaceOnUse">
<stop stop-opacity="0.56"/>
<stop offset="1" stop-color="#999999"/>
</linearGradient>
<linearGradient id="paint3_linear" x1="854.027" y1="928.223" x2="671.256" y2="928.223" gradientUnits="userSpaceOnUse">
<stop/>
<stop offset="1" stop-color="#C4C4C4"/>
</linearGradient>
<linearGradient id="paint4_linear" x1="876.013" y1="944.967" x2="905.172" y2="976.244" gradientUnits="userSpaceOnUse">
<stop stop-opacity="0.56"/>
<stop offset="1" stop-color="#999999"/>
</linearGradient>
<linearGradient id="paint5_linear" x1="1373.71" y1="735.519" x2="1365.47" y2="736.028" gradientUnits="userSpaceOnUse">
<stop stop-opacity="0.56"/>
<stop offset="1" stop-color="#999999"/>
</linearGradient>
<linearGradient id="paint6_linear" x1="1372.84" y1="922.143" x2="1452.17" y2="772.916" gradientUnits="userSpaceOnUse">
<stop stop-opacity="0.56"/>
<stop offset="1" stop-color="#999999"/>
</linearGradient>
<linearGradient id="paint7_linear" x1="1375.34" y1="835.532" x2="1405.06" y2="795.754" gradientUnits="userSpaceOnUse">
<stop stop-opacity="0.56"/>
<stop offset="1" stop-color="#999999"/>
</linearGradient>
<linearGradient id="paint8_linear" x1="1378.95" y1="836.692" x2="1286.14" y2="836.692" gradientUnits="userSpaceOnUse">
<stop/>
<stop offset="1" stop-color="#C4C4C4"/>
</linearGradient>
<linearGradient id="paint9_linear" x1="1390.11" y1="845.162" x2="1404.86" y2="861.039" gradientUnits="userSpaceOnUse">
<stop stop-opacity="0.56"/>
<stop offset="1" stop-color="#999999"/>
</linearGradient>
<linearGradient id="paint10_linear" x1="1146.24" y1="906.614" x2="1138.03" y2="907.118" gradientUnits="userSpaceOnUse">
<stop stop-opacity="0.56"/>
<stop offset="1" stop-color="#999999"/>
</linearGradient>
<linearGradient id="paint11_linear" x1="1145.37" y1="1093.96" x2="1225.35" y2="944.669" gradientUnits="userSpaceOnUse">
<stop stop-opacity="0.56"/>
<stop offset="1" stop-color="#999999"/>
</linearGradient>
<linearGradient id="paint12_linear" x1="1147.86" y1="1007.01" x2="1177.77" y2="967.305" gradientUnits="userSpaceOnUse">
<stop stop-opacity="0.56"/>
<stop offset="1" stop-color="#999999"/>
</linearGradient>
<linearGradient id="paint13_linear" x1="1151.46" y1="1008.18" x2="1059.01" y2="1008.18" gradientUnits="userSpaceOnUse">
<stop/>
<stop offset="1" stop-color="#C4C4C4"/>
</linearGradient>
<linearGradient id="paint14_linear" x1="1162.58" y1="1016.68" x2="1177.39" y2="1032.51" gradientUnits="userSpaceOnUse">
<stop stop-opacity="0.56"/>
<stop offset="1" stop-color="#999999"/>
</linearGradient>
<linearGradient id="paint15_linear" x1="1507.24" y1="66.5188" x2="1499.03" y2="67.0245" gradientUnits="userSpaceOnUse">
<stop stop-opacity="0.56"/>
<stop offset="1" stop-color="#999999"/>
</linearGradient>
<linearGradient id="paint16_linear" x1="1506.37" y1="253.144" x2="1585.87" y2="104.171" gradientUnits="userSpaceOnUse">
<stop stop-opacity="0.56"/>
<stop offset="1" stop-color="#999999"/>
</linearGradient>
<linearGradient id="paint17_linear" x1="1508.86" y1="166.532" x2="1538.62" y2="126.865" gradientUnits="userSpaceOnUse">
<stop stop-opacity="0.56"/>
<stop offset="1" stop-color="#999999"/>
</linearGradient>
<linearGradient id="paint18_linear" x1="1512.46" y1="167.692" x2="1420.01" y2="167.692" gradientUnits="userSpaceOnUse">
<stop/>
<stop offset="1" stop-color="#C4C4C4"/>
</linearGradient>
<linearGradient id="paint19_linear" x1="1523.58" y1="176.162" x2="1538.33" y2="191.982" gradientUnits="userSpaceOnUse">
<stop stop-opacity="0.56"/>
<stop offset="1" stop-color="#999999"/>
</linearGradient>
<linearGradient id="paint20_linear" x1="1784.24" y1="675.519" x2="1776.03" y2="676.025" gradientUnits="userSpaceOnUse">
<stop stop-opacity="0.56"/>
<stop offset="1" stop-color="#999999"/>
</linearGradient>
<linearGradient id="paint21_linear" x1="1783.37" y1="862.143" x2="1862.87" y2="713.171" gradientUnits="userSpaceOnUse">
<stop stop-opacity="0.56"/>
<stop offset="1" stop-color="#999999"/>
</linearGradient>
<linearGradient id="paint22_linear" x1="1785.86" y1="775.532" x2="1815.62" y2="735.865" gradientUnits="userSpaceOnUse">
<stop stop-opacity="0.56"/>
<stop offset="1" stop-color="#999999"/>
</linearGradient>
<linearGradient id="paint23_linear" x1="1789.46" y1="776.692" x2="1697.01" y2="776.692" gradientUnits="userSpaceOnUse">
<stop/>
<stop offset="1" stop-color="#C4C4C4"/>
</linearGradient>
<linearGradient id="paint24_linear" x1="1800.58" y1="785.162" x2="1815.33" y2="800.982" gradientUnits="userSpaceOnUse">
<stop stop-opacity="0.56"/>
<stop offset="1" stop-color="#999999"/>
</linearGradient>
<linearGradient id="paint25_linear" x1="1576.11" y1="949.667" x2="1524.51" y2="949.667" gradientUnits="userSpaceOnUse">
<stop/>
<stop offset="1" stop-color="#C4C4C4"/>
</linearGradient>
<linearGradient id="paint26_linear" x1="1574.1" y1="949.024" x2="1590.57" y2="926.927" gradientUnits="userSpaceOnUse">
<stop stop-opacity="0.56"/>
<stop offset="1" stop-color="#999999"/>
</linearGradient>
<linearGradient id="paint27_linear" x1="1573.2" y1="893.59" x2="1568.62" y2="893.874" gradientUnits="userSpaceOnUse">
<stop stop-opacity="0.56"/>
<stop offset="1" stop-color="#999999"/>
</linearGradient>
<linearGradient id="paint28_linear" x1="1572.72" y1="997.029" x2="1616.61" y2="914.204" gradientUnits="userSpaceOnUse">
<stop stop-opacity="0.56"/>
<stop offset="1" stop-color="#999999"/>
</linearGradient>
<linearGradient id="paint29_linear" x1="2807.65" y1="848.026" x2="2738.49" y2="848.026" gradientUnits="userSpaceOnUse">
<stop/>
<stop offset="1" stop-color="#C4C4C4"/>
</linearGradient>
<linearGradient id="paint30_linear" x1="2804.96" y1="847.158" x2="2827.22" y2="817.484" gradientUnits="userSpaceOnUse">
<stop stop-opacity="0.56"/>
<stop offset="1" stop-color="#999999"/>
</linearGradient>
<linearGradient id="paint31_linear" x1="2803.75" y1="772.342" x2="2797.61" y2="772.72" gradientUnits="userSpaceOnUse">
<stop stop-opacity="0.56"/>
<stop offset="1" stop-color="#999999"/>
</linearGradient>
<linearGradient id="paint32_linear" x1="2803.1" y1="911.948" x2="2862.57" y2="800.507" gradientUnits="userSpaceOnUse">
<stop stop-opacity="0.56"/>
<stop offset="1" stop-color="#999999"/>
</linearGradient>
<linearGradient id="paint33_linear" x1="3645.11" y1="-257.463" x2="3624.85" y2="-256.214" gradientUnits="userSpaceOnUse">
<stop stop-opacity="0.56"/>
<stop offset="1" stop-color="#999999"/>
</linearGradient>
<linearGradient id="paint34_linear" x1="69.1521" y1="1412.51" x2="-0.364342" y2="1412.51" gradientUnits="userSpaceOnUse">
<stop/>
<stop offset="1" stop-color="#C4C4C4"/>
</linearGradient>
<linearGradient id="paint35_linear" x1="66.4449" y1="1411.64" x2="88.8221" y2="1381.81" gradientUnits="userSpaceOnUse">
<stop stop-opacity="0.56"/>
<stop offset="1" stop-color="#999999"/>
</linearGradient>
<linearGradient id="paint36_linear" x1="65.2259" y1="1336.44" x2="59.0553" y2="1336.82" gradientUnits="userSpaceOnUse">
<stop stop-opacity="0.56"/>
<stop offset="1" stop-color="#999999"/>
</linearGradient>
<linearGradient id="paint37_linear" x1="64.5764" y1="1476.77" x2="124.353" y2="1364.75" gradientUnits="userSpaceOnUse">
<stop stop-opacity="0.56"/>
<stop offset="1" stop-color="#999999"/>
</linearGradient>
<linearGradient id="paint38_linear" x1="2850.27" y1="1636.62" x2="2727.72" y2="1636.62" gradientUnits="userSpaceOnUse">
<stop/>
<stop offset="1" stop-color="#C4C4C4"/>
</linearGradient>
<linearGradient id="paint39_linear" x1="2845.5" y1="1635.08" x2="2884.94" y2="1582.49" gradientUnits="userSpaceOnUse">
<stop stop-opacity="0.56"/>
<stop offset="1" stop-color="#999999"/>
</linearGradient>
<linearGradient id="paint40_linear" x1="2843.35" y1="1502.5" x2="2832.47" y2="1503.17" gradientUnits="userSpaceOnUse">
<stop stop-opacity="0.56"/>
<stop offset="1" stop-color="#999999"/>
</linearGradient>
<linearGradient id="paint41_linear" x1="2842.2" y1="1749.89" x2="2947.58" y2="1552.41" gradientUnits="userSpaceOnUse">
<stop stop-opacity="0.56"/>
<stop offset="1" stop-color="#999999"/>
</linearGradient>
<linearGradient id="paint42_linear" x1="1064.27" y1="666.615" x2="941.719" y2="666.615" gradientUnits="userSpaceOnUse">
<stop/>
<stop offset="1" stop-color="#C4C4C4"/>
</linearGradient>
<linearGradient id="paint43_linear" x1="1059.5" y1="665.077" x2="1098.94" y2="612.495" gradientUnits="userSpaceOnUse">
<stop stop-opacity="0.56"/>
<stop offset="1" stop-color="#999999"/>
</linearGradient>
<linearGradient id="paint44_linear" x1="1057.35" y1="532.502" x2="1046.47" y2="533.172" gradientUnits="userSpaceOnUse">
<stop stop-opacity="0.56"/>
<stop offset="1" stop-color="#999999"/>
</linearGradient>
<linearGradient id="paint45_linear" x1="1056.2" y1="779.888" x2="1161.58" y2="582.411" gradientUnits="userSpaceOnUse">
<stop stop-opacity="0.56"/>
<stop offset="1" stop-color="#999999"/>
</linearGradient>
<clipPath id="clip0">
<rect width="3696" height="2232" fill="white"/>
</clipPath>
</defs>
</svg>
